<svg xmlns="http://www.w3.org/2000/svg" viewBox="0 0 170 168.13"><defs><mask id="g"><rect x="-200" y="-200" width="1000" height="1000" fill="white"/><circle cx="120" cy="50" r="45" fill="black"/></mask></defs><circle cx="50" cy="50" r="40.8" fill="#e8e8e8" mask="url(#g)"/><circle cx="120" cy="50" r="35" fill="none" stroke="#e8e8e8" stroke-width="10"/><path d="M12.22 154.99Q12.22 151.11 13.72 148.13Q15.22 145.15 17.98 143.49Q20.73 141.84 24.43 141.84Q27.56 141.84 29.99 142.97Q32.42 144.1 33.84 146.2Q35.26 148.3 35.45 151.06H29.57Q29.35 149.8 28.68 148.82Q28.02 147.84 26.98 147.29Q25.93 146.74 24.54 146.74Q22.72 146.74 21.35 147.72Q19.98 148.7 19.21 150.52Q18.45 152.34 18.45 154.87Q18.45 157.42 19.2 159.27Q19.95 161.12 21.32 162.11Q22.69 163.1 24.54 163.1Q25.85 163.1 26.9 162.61Q27.96 162.11 28.65 161.14Q29.34 160.17 29.57 158.83H35.45Q35.24 161.56 33.85 163.66Q32.46 165.75 30.06 166.93Q27.66 168.11 24.48 168.11Q20.73 168.11 17.95 166.45Q15.16 164.78 13.69 161.8Q12.22 158.83 12.22 154.99ZM37.21 142.17H43.36V167.62H37.21ZM36.74 135.29Q36.74 134.39 37.22 133.63Q37.7 132.88 38.52 132.44Q39.33 132 40.27 132Q41.24 132 42.06 132.44Q42.87 132.88 43.34 133.63Q43.81 134.39 43.81 135.29Q43.81 136.17 43.34 136.94Q42.87 137.71 42.06 138.15Q41.24 138.59 40.27 138.59Q39.33 138.59 38.52 138.15Q37.7 137.71 37.22 136.94Q36.74 136.17 36.74 135.29ZM46.33 142.17H52.28V146.45H52.56Q53.25 144.2 54.93 142.99Q56.6 141.78 58.8 141.78Q59.93 141.78 60.98 141.97V147.61Q60.59 147.46 59.75 147.35Q58.9 147.25 58.16 147.25Q56.55 147.25 55.26 147.95Q53.97 148.64 53.23 149.89Q52.48 151.15 52.48 152.74V167.62H46.33ZM59.9 154.99Q59.9 151.11 61.41 148.13Q62.91 145.15 65.67 143.49Q68.42 141.84 72.12 141.84Q75.24 141.84 77.68 142.97Q80.11 144.1 81.53 146.2Q82.95 148.3 83.14 151.06H77.26Q77.03 149.8 76.37 148.82Q75.71 147.84 74.67 147.29Q73.62 146.74 72.23 146.74Q70.41 146.74 69.04 147.72Q67.67 148.7 66.9 150.52Q66.13 152.34 66.13 154.87Q66.13 157.42 66.89 159.27Q67.64 161.12 69.01 162.11Q70.38 163.1 72.23 163.1Q73.54 163.1 74.59 162.61Q75.65 162.11 76.34 161.14Q77.03 160.17 77.26 158.83H83.14Q82.93 161.56 81.54 163.66Q80.14 165.75 77.75 166.93Q75.35 168.11 72.17 168.11Q68.42 168.11 65.64 166.45Q62.85 164.78 61.38 161.8Q59.9 158.83 59.9 154.99ZM101.15 142.17H107.27V167.62H101.34V163.09H101.06Q100.14 165.31 98.17 166.63Q96.2 167.95 93.4 167.95Q90.88 167.95 88.96 166.81Q87.04 165.67 85.97 163.51Q84.9 161.34 84.9 158.36V142.17H91.05V157.39Q91.05 158.96 91.63 160.14Q92.22 161.31 93.3 161.95Q94.38 162.6 95.78 162.6Q97.17 162.6 98.4 161.94Q99.63 161.28 100.39 159.98Q101.15 158.67 101.15 156.87ZM116.41 167.62H110.26V133.68H116.41ZM130.96 156.61 128.6 156.8Q126.48 156.97 125.29 157.88Q124.1 158.79 124.1 160.37Q124.1 161.41 124.64 162.14Q125.17 162.86 126.14 163.25Q127.1 163.63 128.32 163.63Q130.05 163.63 131.38 162.93Q132.7 162.24 133.42 161.07Q134.15 159.89 134.15 158.48L134.11 150.35Q134.11 149.11 133.61 148.25Q133.1 147.38 132.08 146.94Q131.07 146.5 129.61 146.5Q127.72 146.5 126.52 147.29Q125.31 148.08 124.98 149.48H119.01Q119.25 147.28 120.6 145.54Q121.95 143.81 124.29 142.82Q126.64 141.84 129.78 141.84Q132.55 141.84 134.89 142.68Q137.23 143.52 138.74 145.47Q140.26 147.43 140.26 150.57V167.62H134.36V164.11H134.18Q133.59 165.25 132.58 166.15Q131.57 167.04 130.09 167.59Q128.61 168.13 126.68 168.13Q124.22 168.13 122.3 167.24Q120.38 166.35 119.27 164.62Q118.16 162.89 118.16 160.48Q118.16 156.49 120.82 154.74Q123.47 152.99 127.65 152.72Q128.29 152.66 132.03 152.48L134.43 152.39L134.48 156.41Q133.67 156.43 130.96 156.61ZM143.13 142.17H149.08V146.45H149.37Q150.05 144.2 151.73 142.99Q153.41 141.78 155.6 141.78Q156.73 141.78 157.78 141.97V147.61Q157.39 147.46 156.55 147.35Q155.7 147.25 154.96 147.25Q153.35 147.25 152.06 147.95Q150.78 148.64 150.03 149.89Q149.28 151.15 149.28 152.74V167.62H143.13Z" fill="#e8e8e8"/></svg>
